PathFileType	4	(X/Y/Z)	Kaydara																																																																																																																									
DataRate	CameraRate	NumFrames	NumMarkers	Units	OrigDataRate	OrigDataStartFrame	OrigNumFrames																																																																																																																					
30	30	9	41	mm	30	117	148																																																																																																																					
Frame#	Time	SALE_LFHD			SALE_RFHD			SALE_LBHD			SALE_RBHD			SALE_LFTShould			SALE_RFTShould			SALE_LRRShould			SALE_RRRShould			SALE_T10			SALE_STRN			SALE_TRUN			SALE_LSHO			SALE_LUPA			SALE_LELB			SALE_LFRM			SALE_LWRA			SALE_LWRB			SALE_LFIN			SALE_RSHO			SALE_RUPA			SALE_RELB			SALE_RFRM			SALE_RWRB			SALE_RFIN			SALE_LFWT			SALE_RFWT			SALE_LBWT			SALE_RBWT			SALE_LTHI			SALE_LKNE			SALE_RWRA			SALE_LSHN			SALE_LANK			SALE_LHEE			SALE_LTOE			SALE_RTHI			SALE_RKNE			SALE_RSHN			SALE_RANK			SALE_RHEE			SALE_RTOE		
		X1	Y1	Z1	X2	Y2	Z2	X3	Y3	Z3	X4	Y4	Z4	X5	Y5	Z5	X6	Y6	Z6	X7	Y7	Z7	X8	Y8	Z8	X9	Y9	Z9	X10	Y10	Z10	X11	Y11	Z11	X12	Y12	Z12	X13	Y13	Z13	X14	Y14	Z14	X15	Y15	Z15	X16	Y16	Z16	X17	Y17	Z17	X18	Y18	Z18	X19	Y19	Z19	X20	Y20	Z20	X21	Y21	Z21	X22	Y22	Z22	X23	Y23	Z23	X24	Y24	Z24	X25	Y25	Z25	X26	Y26	Z26	X27	Y27	Z27	X28	Y28	Z28	X29	Y29	Z29	X30	Y30	Z30	X31	Y31	Z31	X32	Y32	Z32	X33	Y33	Z33	X34	Y34	Z34	X35	Y35	Z35	X36	Y36	Z36	X37	Y37	Z37	X38	Y38	Z38	X39	Y39	Z39	X40	Y40	Z40	X41	Y41	Z41
																																																																																																																												
93	3.867	186.21735	1609.1185	258.32705	53.53662	1603.47824	252.976	188.23765	1594.79034	123.94562	60.34962	1587.3494	125.13355	205.19129	1349.54544	210.45229	66.66517	1343.94928	205.26602	203.92462	1409.26804	98.821	54.8078	1409.88922	99.70609	133.91808	1259.82384	23.54599	131.802	1272.4276	251.06981	130.11062	1184.00177	286.92146	320.89706	1383.03955	149.34667	374.10957	1173.16368	178.05244	368.26099	1057.93396	185.29915	400.11864	968.56049	250.47001	345.06645	864.9765	368.05561	409.77314	844.30527	330.94425	409.9411	825.56152	392.3933	-37.25133	1375.18921	139.10955	-61.87664	1157.55569	50.76059	-104.18634	1054.68285	76.15574	-100.29829	940.93842	58.91777	-134.94872	802.16461	87.90843	-159.24254	760.32921	135.72058	272.30427	941.65085	195.03799	-4.73389	929.04671	210.56385	200.09636	997.81609	31.55932	23.86199	986.34048	36.98308	246.85955	654.99046	5.2821	235.72979	478.17337	65.31584	-105.67635	807.65678	156.64762	216.72037	279.3008	30.06699	195.35242	106.78831	-48.35654	151.40675	62.86965	-116.99308	170.00998	61.41156	78.67033	-15.53324	665.83023	162.31403	21.11451	572.89379	339.92664	76.04819	363.39226	365.10086	31.96878	107.88439	312.34236	81.19735	47.08597	243.56739	48.23623	64.76901	432.75967
94	3.9	182.02747	1602.18094	303.12292	49.60139	1593.6969	296.73513	185.30476	1588.72574	168.65479	57.57256	1578.56277	168.89776	205.74398	1342.10678	253.16597	67.36288	1336.23901	248.89019	204.16821	1401.7868	141.37988	54.79627	1402.4736	143.37149	133.41238	1252.14493	67.26166	132.97667	1264.94568	294.03036	131.67555	1176.68495	330.17021	321.04362	1376.2973	191.93893	374.63295	1168.24539	228.33429	369.67262	1053.34412	241.17733	400.34492	968.53745	313.63983	343.19252	874.70528	438.25745	408.82542	851.43379	404.15119	407.64977	837.72079	466.97659	-37.1283	1367.83417	183.28175	-61.01775	1151.72058	92.26787	-104.12901	1048.75412	115.35746	-100.39741	935.62004	95.12148	-136.30785	796.23032	119.19211	-161.48449	752.96547	165.33838	271.90838	935.08339	237.62341	-4.84721	921.81808	259.62769	196.85766	990.53841	75.59216	20.31344	978.35518	84.66043	241.5855	656.8441	38.22556	234.56783	477.08111	88.20582	-108.36854	799.58633	188.82353	215.10143	280.22715	42.55593	192.54948	111.67632	-45.41647	146.31162	71.40466	-114.64754	169.7797	61.07867	79.82223	-14.25246	653.07602	199.27273	20.67316	556.14704	372.57698	74.39379	363.26176	424.63852	28.67788	103.59518	434.08512	77.48425	30.0445	381.09844	43.53934	85.64188	562.547
95	3.933	179.20488	1595.11032	347.11514	46.77407	1585.16739	340.41893	182.95033	1581.43967	212.6721	55.24593	1569.90677	212.59665	205.14925	1334.13803	296.64253	66.68964	1328.11417	293.55234	202.717	1393.65463	184.56215	53.08187	1394.1803	187.8878	131.13494	1243.50517	112.09573	132.99704	1256.93382	338.21682	132.40458	1168.6377	374.35692	319.8875	1368.45963	234.73152	373.81699	1161.77635	276.42921	369.39835	1047.29485	293.21493	399.26533	967.01576	371.87252	340.56271	882.98195	502.68097	406.58588	857.15569	471.23569	404.93752	848.62328	534.78817	-38.56327	1359.39087	228.76827	-61.86637	1143.72581	136.46033	-104.95301	1040.86945	157.98162	-101.17532	928.92792	134.28297	-137.4029	788.82149	152.60677	-162.67591	743.71643	196.41693	271.17559	928.75183	283.51643	-4.63356	913.20442	311.22089	192.74212	982.77283	122.4969	15.64989	968.15376	134.74259	236.83933	658.56461	75.69274	235.39639	475.85903	116.18049	-109.41603	789.18266	222.44091	215.78749	281.18305	59.01474	193.86406	118.27868	-39.84398	147.72478	82.4222	-111.41346	170.28519	60.31244	81.46924	-14.89285	639.96624	237.18346	20.1299	537.26818	409.99714	70.70045	363.76144	475.14328	26.66754	113.62919	533.96217	73.94418	27.63581	491.18866	47.32356	114.23697	663.07533
96	3.967	177.79324	1588.92395	390.37563	45.36178	1579.38782	384.23294	180.90754	1574.54041	255.94229	53.19585	1563.48022	256.4716	202.97485	1327.46857	341.49555	64.16298	1321.01028	339.44069	199.45139	1386.09177	228.54689	49.60936	1386.24969	233.07938	127.71749	1234.9044	158.30138	131.48539	1250.4126	384.32175	131.36028	1162.6136	421.41029	317.2661	1361.23581	278.0031	371.11675	1155.13161	321.73092	367.42802	1041.1676	341.22505	396.92001	965.15259	424.5615	337.68795	889.35852	559.9675	403.99067	861.76109	530.68077	401.96716	857.75139	594.69307	-41.59713	1351.16577	275.07092	-64.4408	1134.8465	183.49548	-107.0593	1032.38411	204.66829	-102.62177	922.15103	176.97269	-138.48392	781.4801	189.14074	-163.25861	734.03976	230.83807	270.14166	922.13264	332.0364	-5.26841	906.53046	362.70103	188.66751	975.94917	172.16242	11.48993	962.30446	185.49606	235.93847	658.32001	117.97756	237.45775	473.96255	150.88283	-110.28952	778.69888	258.89957	218.22039	282.20503	81.12404	199.92357	127.02501	-30.57367	156.26336	97.12517	-105.98818	171.91113	59.02786	84.36801	-19.04691	636.18282	291.09375	14.72415	531.48788	458.00179	65.27803	360.35355	526.97052	28.38904	110.4434	589.26117	80.1938	23.60704	548.941	49.53948	112.48065	718.70247
97	4	176.97376	1585.1474	433.20732	44.33302	1577.03873	428.25905	178.95313	1569.19693	298.82229	51.05665	1559.53568	300.52134	199.70642	1323.237	387.53212	60.72509	1316.29059	386.31424	195.21168	1380.99472	273.71817	45.11848	1380.71106	279.14179	123.86592	1228.40126	205.92772	128.37552	1246.75598	432.0039	128.57012	1159.51088	470.49828	313.60971	1356.40976	322.68299	366.64742	1149.61082	364.45568	363.3535	1036.54602	384.5842	393.08399	963.40744	471.48682	334.39003	892.94678	609.42455	401.19617	864.72145	581.71928	398.83793	864.03168	645.95917	-45.58117	1344.96567	322.18018	-67.66936	1127.61337	232.96799	-109.50411	1025.30716	253.86503	-104.50281	916.68594	223.37072	-139.99705	775.9108	231.03264	-162.86425	725.92468	270.32995	267.14542	916.9043	386.08711	-9.7681	906.13174	415.89771	186.74421	970.1033	224.83044	9.09203	960.57686	238.38837	234.72469	657.00623	168.08395	237.36345	471.95423	196.50005	-110.1267	770.20988	299.83902	220.69374	284.69341	110.29284	207.60286	140.18987	-15.91076	166.658	118.20513	-94.82366	174.643	57.12361	89.44682	-22.62127	637.1032	352.1088	14.39637	533.35091	515.16418	68.98833	350.59116	574.70573	27.97019	95.69183	611.33911	75.66584	23.79563	561.94435	51.9276	79.06771	739.88632
98	4.033	176.08862	1587.41516	476.35334	43.29878	1580.896	472.68379	176.71684	1569.40506	342.10579	48.73322	1561.44104	345.05219	195.66006	1324.28238	434.29321	55.87479	1317.54898	434.01672	190.32965	1381.09344	319.41389	39.48205	1380.28442	325.76374	119.21354	1226.89613	255.14269	124.18899	1248.81805	480.81375	124.48406	1162.61925	521.21429	309.43766	1355.86807	367.60067	361.13598	1147.5013	405.99899	357.55886	1034.97528	425.21442	388.34152	961.82381	512.28962	330.51743	892.39418	650.9758	397.02847	863.9183	623.1823	395.83057	865.47134	687.32414	-50.91648	1343.66913	369.9588	-70.92432	1124.87053	283.33448	-112.04233	1022.5618	304.46856	-106.42638	914.67163	273.1909	-141.40259	774.3663	279.27975	-161.17748	722.29836	317.30139	264.81098	916.22673	442.12399	-9.92149	910.94864	470.02922	187.06501	969.23615	279.73709	6.74704	966.65451	293.28976	228.35623	652.64214	228.14425	233.70975	467.25689	258.41593	-108.32709	766.8026	346.6819	221.42546	288.07365	150.71541	213.2041	159.34451	8.28804	174.02134	148.89751	-72.27117	175.71793	53.88613	97.27839	-24.00519	641.61255	401.44554	13.39375	534.42314	559.31892	73.97305	351.92932	613.33767	31.36936	94.77295	631.3781	77.20952	32.49556	571.12434	64.82538	57.26836	762.96379
99	4.067	175.10328	1592.71957	519.67041	42.24406	1588.56079	517.3344	174.13691	1572.99149	385.72159	46.11025	1567.31308	389.9823	190.99304	1330.80383	481.25706	51.55708	1323.57758	482.08111	184.6369	1386.38214	366.07239	34.36787	1384.6315	373.24909	114.92831	1230.90225	303.66146	120.13836	1256.01379	529.4772	120.95028	1170.47791	571.43761	304.45744	1361.86188	413.28144	354.7752	1152.02423	446.6124	350.44205	1039.45045	463.66074	382.07039	962.26456	546.89507	326.49105	888.35068	684.0728	391.47358	859.53247	653.84491	392.66895	860.62622	717.77023	-55.57451	1348.45367	418.4182	-74.25053	1129.64417	333.99765	-114.22762	1026.56151	356.53465	-108.09237	918.60596	326.0675	-141.79376	778.23753	333.86337	-159.0238	725.466	372.21169	260.04187	918.71361	496.32202	-12.11206	926.04797	520.51548	189.04549	972.27737	331.95427	9.80931	978.54424	341.96949	221.42879	640.73181	298.34339	230.05798	457.10548	339.63966	-106.05121	770.8432	399.81289	224.49507	291.75842	206.5177	217.83092	183.48248	48.69206	179.69353	189.68664	-30.81853	174.69908	51.44917	108.44994	-32.41724	659.48471	449.02302	22.81775	547.31831	608.93734	78.61619	352.71751	642.98615	34.91927	97.00777	648.46352	76.5802	35.55264	574.48559	63.91201	52.77107	765.49019
100	4.1	173.52009	1598.90366	563.00304	40.68905	1595.92834	561.85539	171.35836	1577.34573	429.31629	43.33827	1572.79388	434.77779	187.74136	1338.46283	527.4894	48.73559	1330.99976	529.64874	180.19798	1393.14728	412.30423	30.78295	1390.68771	421.01791	111.3949	1237.38464	350.33028	117.16961	1264.06021	576.83952	118.22809	1178.54996	619.24145	300.49814	1370.41916	458.59398	349.13712	1159.32999	487.49355	341.93005	1046.68968	499.29123	374.90696	963.72383	576.91212	323.05824	882.08237	711.02974	385.94658	853.78098	676.68213	388.56789	848.81966	740.78705	-58.62188	1355.58029	467.40044	-78.48442	1136.93153	385.26016	-116.57587	1033.3873	409.53789	-110.02134	924.54353	380.98495	-141.92118	783.85002	392.84508	-157.74394	731.61369	432.7528	255.09176	923.02917	544.65679	-18.4541	935.83755	565.04921	189.9807	973.8916	378.6219	10.88621	984.86191	387.14546	216.81515	624.18621	371.87164	229.72939	447.29649	429.85855	-104.82194	778.48915	458.0098	224.97259	297.33139	279.23624	221.24668	213.33502	107.65691	185.905	237.18748	32.97183	178.49405	68.08784	134.51968	-36.59133	664.72252	493.61336	20.58486	552.0153	641.86966	78.41366	352.12231	665.09804	33.84885	94.58968	647.52426	75.37392	36.14293	574.98688	65.86324	52.21022	766.53572
101	4.133	171.50982	1604.82864	606.58909	38.73522	1600.82626	606.07944	168.88834	1581.79077	473.16509	40.90258	1576.32614	479.30187	186.2553	1344.04037	572.13741	47.43543	1336.37756	576.44573	177.19439	1398.9624	457.37679	28.17024	1396.37558	468.52882	107.66667	1243.73032	395.48973	116.1353	1269.54468	622.52647	117.69029	1183.41644	663.81775	297.98641	1376.48407	502.28367	345.2523	1164.33083	528.23654	334.58611	1051.59592	534.25312	368.24196	962.87041	604.43798	319.51633	872.07771	733.97743	380.20844	845.009	694.81079	383.29472	831.36505	758.4549	-60.48149	1361.63361	516.80241	-84.36825	1142.6178	436.21853	-119.81399	1038.85071	463.62541	-113.52672	928.75519	437.59247	-142.45975	787.59224	455.43507	-157.50032	737.10938	497.73281	254.39264	925.89996	585.45769	-21.59093	942.64801	608.84464	186.63477	973.54919	419.89517	8.14263	989.19777	430.94154	212.6902	611.81412	445.34157	229.98878	443.03867	525.03696	-104.82522	785.69542	520.10117	224.32739	305.79868	363.79482	220.01547	243.55894	182.60599	178.02759	273.24278	112.28507	192.25306	94.75044	194.76267	-39.98197	671.51245	526.48472	18.69286	548.87177	669.36539	75.59406	349.99268	683.15453	33.75612	93.42786	647.57668	75.56666	36.43812	575.04787	65.65541	51.60195	766.86188
